# xmcd
#
# Track frame offsets:
#	150
#	17525
#	34000
#	53567
#	71955
#	91202
#	107928
#	125303
#	141778
#	161346
#	179735
#	198983
#
# Disc length: 2876 seconds
#
# Revision: 1
# Processed by: cddbd v1.5.2PL0 Copyright (c) Steve Scherf et al.
# Submitted via: audiograbber 1.83.01
#
DISCID=a10b3a0c
DTITLE=Various Artist - CB20060 Hot Hits Vol. 60
DYEAR=1900
DGENRE=Country
TTITLE0=Kinleys, The - Somebody's Out There Watching (Vocals)
TTITLE1=Wilkinsons, The - Fly (Vocals)
TTITLE2=Mindy McCready - Lets Talk About Love (Vocals)
TTITLE3=Allison Moorer - Alabama Song (Vocals)
TTITLE4=Karen Staley - Somebody's Child (Vocals)
TTITLE5=Linda Davis - I'm Yours (Vocals)
TTITLE6=Kinleys, The - Somebody's Out There Watching
TTITLE7=Wilkinsons, The - Fly
TTITLE8=Mindy McCready - Let's Talk About Love
TTITLE9=Allison Moorer - Alabama
TTITLE10=Karen Staley - Somebody's Child
TTITLE11=Linda Davis - I'm Yours
EXTD=
EXTT0=
EXTT1=
EXTT2=
EXTT3=
EXTT4=
EXTT5=
EXTT6=
EXTT7=
EXTT8=
EXTT9=
EXTT10=
EXTT11=
PLAYORDER=
